<?xml version="1.0" encoding="UTF-8" standalone="no"?>
<!-- Created with Inkscape (http://www.inkscape.org/) -->

<svg
   xmlns:dc="http://purl.org/dc/elements/1.1/"
   xmlns:cc="http://creativecommons.org/ns#"
   xmlns:rdf="http://www.w3.org/1999/02/22-rdf-syntax-ns#"
   xmlns:svg="http://www.w3.org/2000/svg"
   xmlns="http://www.w3.org/2000/svg"
   xmlns:sodipodi="http://sodipodi.sourceforge.net/DTD/sodipodi-0.dtd"
   xmlns:inkscape="http://www.inkscape.org/namespaces/inkscape"
   width="210mm"
   height="297mm"
   viewBox="0 0 210 297"
   version="1.1"
   id="svg8"
   inkscape:version="0.92.1 r15371"
   sodipodi:docname="drawing.svg">
  <defs
     id="defs2" />
  <sodipodi:namedview
     id="base"
     pagecolor="#ffffff"
     bordercolor="#666666"
     borderopacity="1.0"
     inkscape:pageopacity="0.0"
     inkscape:pageshadow="2"
     inkscape:zoom="0.35"
     inkscape:cx="400"
     inkscape:cy="560"
     inkscape:document-units="mm"
     inkscape:current-layer="layer1"
     showgrid="false"
     inkscape:window-width="1024"
     inkscape:window-height="739"
     inkscape:window-x="0"
     inkscape:window-y="0"
     inkscape:window-maximized="1" />
  <metadata
     id="metadata5">
    <rdf:RDF>
      <cc:Work
         rdf:about="">
        <dc:format>image/svg+xml</dc:format>
        <dc:type
           rdf:resource="http://purl.org/dc/dcmitype/StillImage" />
        <dc:title></dc:title>
      </cc:Work>
    </rdf:RDF>
  </metadata>
  <g
     inkscape:label="Layer 1"
     inkscape:groupmode="layer"
     id="layer1">
    <path
       style="fill:#000000;stroke-width:0.35277775"
       d="M 19.705159,10.246617 C 16.425639,9.7122787 12.404865,7.5390761 9.7102,4.8444114 6.543233,1.6774444 3.8301598,-3.8609369 3.8301598,-7.1589115 c 0,-0.6852178 -0.1167702,-1.2458523 -0.2594893,-1.2458523 -0.1427187,0 -2.1737572,1.9096707 -4.51341838,4.2437153 -3.49150842,3.48312642 -4.48532072,4.28126491 -5.54497792,4.45322643 -1.120987,0.18190984 -1.4383427,0.0622124 -2.4092502,-0.90869552 -0.9717686,-0.97176861 -1.0906981,-1.28768461 -0.9081773,-2.41242831 0.1814866,-1.118369 1.4693201,-2.5541956 9.47781104,-10.5669671 l 9.26778686,-9.272738 -5.4655589,-0.0052 c -6.0968737,-0.0058 -6.8934765,-0.216445 -7.8219498,-2.06834 -0.5426177,-1.082282 -0.5459193,-1.279466 -0.039218,-2.342031 0.3043071,-0.638138 0.9355902,-1.334441 1.4028518,-1.54734 0.5658763,-0.25783 5.053477,-0.387088 13.4390173,-0.387088 H 23.04504 l -3.945233,-3.96875 c -2.169877,-2.182812 -4.095565,-4.372484 -4.279306,-4.865937 -0.41216,-1.106896 0.271099,-2.931442 1.304979,-3.484758 0.39109,-0.209304 1.237446,-0.38109 1.880792,-0.381744 1.06446,-0.0011 2.093116,0.927471 11.431153,10.318749 7.248066,7.289392 10.591073,10.905855 11.383951,12.315162 2.729629,4.851793 3.402468,10.5794556 1.838763,15.6528089 C 39.607143,6.272163 30.204724,11.957342 19.705159,10.246617 Z M 29.74528,2.8912539 c 8.124853,-4.1239613 9.948107,-14.2680539 3.864049,-21.4985439 -1.151442,-1.36841 -4.38139,-3.2752 -6.585616,-3.887796 -5.659903,-1.572994 -12.462427,1.448834 -15.481416,6.877178 -0.317977,0.571744 -0.85493,2.18863 -1.193231,3.59308 -0.5269998,2.1878395 -0.5542134,2.8699071 -0.190018,4.7624997 1.058165,5.4988985 4.294079,9.2646881 9.546111,11.1092677 0.727201,0.255404 2.559092,0.3944479 4.456718,0.3382751 2.862954,-0.084744 3.485138,-0.2289387 5.583403,-1.2939606 z m -7.2179,-4.1473152 c -1.309976,-0.1870922 -2.822221,-0.8381858 -2.822221,-1.2151006 0,-0.1819381 -0.133596,-0.2482321 -0.29688,-0.1473165 -0.40059,0.2475794 -2.302723,-1.7973921 -3.050292,-3.2793479 -1.29782,-2.5727552 -0.455866,-7.1550917 1.674598,-9.1139977 3.010042,-2.767656 7.553848,-2.961435 10.736602,-0.457881 0.499893,0.393218 0.815332,0.714942 0.700969,0.714942 -0.11436,0 0.170699,0.378626 0.633465,0.841392 1.650746,1.650746 2.023336,5.7989257 0.743204,8.2744271 -1.534294,2.966995 -5.095807,4.84328577 -8.319445,4.3828826 z"
       id="path3745"
       inkscape:connector-curvature="0" />
  </g>
</svg>
